<svg width="41" height="38" viewBox="0 0 41 38" fill="none" xmlns="http://www.w3.org/2000/svg">
<path d="M3.9029 38C6.0495 38 7.80581 36.2938 7.80581 34.2085V20.9384C7.80581 18.8531 6.0495 17.1469 3.9029 17.1469C1.75631 17.1469 0 18.8531 0 20.9384V34.2085C0 36.2938 1.75631 38 3.9029 38ZM20.2366 27.4408L23.1052 28.4076C23.3198 28.4834 23.5345 28.5213 23.7492 28.5213H37.0776C39.2437 28.5213 40.9805 30.2085 41 32.3128L26.5788 37.564C25.7982 37.8483 24.9396 37.8863 24.1395 37.6588L11.7087 34.2464V17.1469H14.831C15.2994 17.1469 15.7677 17.2227 16.1971 17.3934L29.7206 22.3033C30.2275 22.4862 30.652 22.8363 30.9202 23.2924C31.1884 23.7485 31.2831 24.2817 31.1878 24.7987C31.0925 25.3157 30.8133 25.7838 30.3989 26.1212C29.9845 26.4586 29.4612 26.6438 28.9205 26.6446H23.7882C23.554 26.6446 23.3198 26.6066 23.0857 26.5118L20.9 25.6967C20.3927 25.5071 19.8267 25.7725 19.6511 26.2654C19.4755 26.7393 19.7292 27.2701 20.2366 27.4408ZM37.3898 7.47867L27.6326 0.7109C26.2665 -0.236967 24.4517 -0.236967 23.1052 0.7109L13.3479 7.47867C12.3137 8.19905 11.7087 9.33649 11.7087 10.5687V13.3554H14.8505C15.3384 13.3554 15.8458 13.4502 16.2946 13.6209L31.4964 19.5166C33.6821 20.3886 35.1261 22.436 35.1261 24.7299H39.029V10.5687C39.029 9.33649 38.4241 8.19905 37.3898 7.47867ZM23.4174 15.2512C22.871 15.2512 22.4417 14.8341 22.4417 14.3033C22.4417 13.7725 22.871 13.3554 23.4174 13.3554C23.9638 13.3554 24.3931 13.7725 24.3931 14.3033C24.3931 14.8341 23.9638 15.2512 23.4174 15.2512ZM23.4174 11.4597C22.871 11.4597 22.4417 11.0427 22.4417 10.5118C22.4417 9.98104 22.871 9.56398 23.4174 9.56398C23.9638 9.56398 24.3931 9.98104 24.3931 10.5118C24.3931 11.0427 23.9638 11.4597 23.4174 11.4597ZM27.3203 15.2512C26.7739 15.2512 26.3446 14.8341 26.3446 14.3033C26.3446 13.7725 26.7739 13.3554 27.3203 13.3554C27.8667 13.3554 28.296 13.7725 28.296 14.3033C28.296 14.8341 27.8667 15.2512 27.3203 15.2512ZM27.3203 11.4597C26.7739 11.4597 26.3446 11.0427 26.3446 10.5118C26.3446 9.98104 26.7739 9.56398 27.3203 9.56398C27.8667 9.56398 28.296 9.98104 28.296 10.5118C28.296 11.0427 27.8667 11.4597 27.3203 11.4597Z" fill="white"/>
</svg>
