<svg width="33" height="31" viewBox="0 0 33 31" fill="none" xmlns="http://www.w3.org/2000/svg">
<path d="M32.317 15.246L17.3233 0.339496C17.2154 0.231876 17.0872 0.146496 16.946 0.0882407C16.8048 0.0299857 16.6535 0 16.5007 0C16.3479 0 16.1965 0.0299857 16.0554 0.0882407C15.9142 0.146496 15.786 0.231876 15.678 0.339496L0.684343 15.246C0.247528 15.6806 0 16.2709 0 16.8866C0 18.165 1.04472 19.2044 2.32968 19.2044H3.90949V29.8411C3.90949 30.4821 4.43003 31 5.07433 31H14.171V22.8876H18.2479V31H27.927C28.5713 31 29.0919 30.4821 29.0919 29.8411V19.2044H30.6717C31.2905 19.2044 31.8838 18.9618 32.3207 18.5236C33.2271 17.6182 33.2271 16.1514 32.317 15.246Z" fill="black"/>
</svg>
