<svg width="29" height="33" viewBox="0 0 29 33" fill="none" xmlns="http://www.w3.org/2000/svg">
<path d="M27.9743 21.2169L20.9787 17.8422L18.0206 16.4151C19.3125 15.5919 20.3618 14.3216 21.0484 12.7914C21.6211 11.5158 21.9174 10.131 21.9173 8.73C21.9173 7.90462 21.7877 7.1208 21.6073 6.36454C20.7272 2.69978 17.8973 0 14.5 0C11.167 0 8.37997 2.60355 7.44544 6.16395C7.22967 6.98075 7.08136 7.83008 7.08136 8.73C7.08136 10.2927 7.44231 11.7496 8.05565 13.0169C8.76459 14.4869 9.81572 15.699 11.0951 16.4783L8.26204 17.8124L1.03951 21.2142C0.41232 21.5115 0 22.2271 0 23.0263V31.052C0 32.1276 0.741104 32.9995 1.65598 32.9995H12.383V26.8546C12.3845 26.7912 12.4029 26.7294 12.4362 26.6757L12.4317 26.673L14.1886 23.5955L14.1931 23.5982C14.2556 23.4898 14.3669 23.413 14.5 23.413C14.6331 23.413 14.7444 23.4893 14.8069 23.5982L14.8087 23.5969L14.8248 23.6253C14.827 23.6298 14.8301 23.6334 14.8319 23.638L16.5656 26.6743L16.5634 26.6757C16.5967 26.7295 16.6151 26.7915 16.6165 26.855V33H27.3436C28.2584 33 29 32.1281 29 31.0524V23.0263C29.0013 22.2298 28.5957 21.521 27.9743 21.2169ZM16.5647 19.1591L16.5692 19.1618L14.8118 22.2393L14.8073 22.2366C14.7768 22.292 14.7324 22.3383 14.6785 22.3708C14.6246 22.4032 14.5632 22.4207 14.5004 22.4213C14.4377 22.4207 14.3763 22.4032 14.3224 22.3708C14.2685 22.3383 14.224 22.292 14.1936 22.2366L14.1913 22.2379L14.1734 22.2068C14.1721 22.2036 14.1694 22.2009 14.1681 22.1977L12.4344 19.1605L12.4362 19.1591C12.4028 19.1052 12.3845 19.0433 12.383 18.9798C12.383 18.7787 12.5443 18.6156 12.7431 18.6156H16.2569C16.4557 18.6156 16.617 18.7787 16.617 18.9798C16.6163 19.0433 16.5982 19.1054 16.5647 19.1591Z" fill="black"/>
</svg>
