<svg width="42" height="38" viewBox="0 0 42 38" fill="none" xmlns="http://www.w3.org/2000/svg">
<path d="M10.0609 28.595C10.779 29.4195 11.2434 30.4323 11.3986 31.5124C11.5539 32.5925 11.3934 33.6942 10.9364 34.686C10.4794 35.6778 9.7452 36.5177 8.82148 37.1053C7.89776 37.693 6.82358 38.0036 5.72727 38C2.55818 38 0 35.454 0 32.3C0 29.146 2.55818 26.6 5.72727 26.6C6.07091 26.6 6.41455 26.6 6.73909 26.695L12.0977 17.3838C12.3745 16.9027 12.2067 16.2883 11.7237 16.0148L11.3912 15.8265C10.6142 15.3865 10.7595 14.2263 11.621 13.9915L16.1239 12.7643C16.6558 12.6193 17.2047 12.9323 17.351 13.4638L18.5856 17.9507C18.8217 18.8089 17.9032 19.5248 17.1287 19.0862L16.7688 18.8824C16.2898 18.6112 15.6817 18.778 15.4082 19.2557L10.0609 28.595ZM36.2727 26.6C33.7909 26.6 31.6909 28.196 30.8891 30.4H20.0909C19.5386 30.4 19.0909 29.9523 19.0909 29.4V29.0061C19.0909 28.1163 18.0161 27.6696 17.3855 28.2973L14.0758 31.5912C13.683 31.9821 13.683 32.6179 14.0758 33.0088L17.3855 36.3027C18.0161 36.9303 19.0909 36.4836 19.0909 35.5939V35.2C19.0909 34.6477 19.5386 34.2 20.0909 34.2H30.8891C31.6909 36.404 33.7909 38 36.2727 38C39.4418 38 42 35.454 42 32.3C42 29.146 39.4418 26.6 36.2727 26.6ZM21 11.4C21.3436 11.4 21.6873 11.4 22.0118 11.305L27.3704 20.6162C27.6473 21.0973 27.4794 21.7117 26.9965 21.9852L26.6639 22.1735C25.8869 22.6135 26.0322 23.7737 26.8937 24.0085L31.3966 25.2357C31.9286 25.3807 32.4775 25.0677 32.6237 24.5362L33.8583 20.0493C34.0944 19.1911 33.1759 18.4752 32.4014 18.9138L32.0415 19.1176C31.5625 19.3888 30.9544 19.222 30.6809 18.7443L25.3336 9.40501C26.0517 8.58052 26.5161 7.56774 26.6713 6.48764C26.8266 5.40754 26.6661 4.30579 26.2091 3.31401C25.7521 2.32223 25.0179 1.48234 24.0942 0.894686C23.1705 0.307028 22.0963 -0.00355773 21 3.07475e-05C17.8309 3.07475e-05 15.2727 2.54603 15.2727 5.70002C15.2727 8.85402 17.8309 11.4 21 11.4Z" fill="white"/>
</svg>
