<svg width="39" height="30" viewBox="0 0 39 30" fill="none" xmlns="http://www.w3.org/2000/svg">
<path d="M38.0849 8.75H33.5245L32.257 5.5C30.9545 2.15859 27.8459 0 24.3367 0H14.6628C11.1543 0 8.04501 2.15859 6.7417 5.5L5.4742 8.75H0.914548C0.319645 8.75 -0.11682 9.32344 0.0279066 9.91484L0.484938 11.7898C0.586247 12.207 0.951873 12.5 1.37158 12.5H2.90035C1.87736 13.4164 1.21847 14.7484 1.21847 16.25V20C1.21847 21.2594 1.68769 22.3961 2.43723 23.2758V27.5C2.43723 28.8805 3.52877 30 4.87473 30H7.31223C8.65819 30 9.74973 28.8805 9.74973 27.5V25H29.2498V27.5C29.2498 28.8805 30.3413 30 31.6873 30H34.1248C35.4707 30 36.5623 28.8805 36.5623 27.5V23.2758C37.3118 22.3969 37.781 21.2602 37.781 20V16.25C37.781 14.7484 37.1221 13.4164 36.0999 12.5H37.6287C38.0484 12.5 38.414 12.207 38.5153 11.7898L38.9724 9.91484C39.1163 9.32344 38.6799 8.75 38.0849 8.75ZM11.2678 7.35703C11.8231 5.93359 13.1676 5 14.6628 5H24.3367C25.8319 5 27.1764 5.93359 27.7317 7.35703L29.2498 11.25H9.74973L11.2678 7.35703ZM7.31223 19.9844C5.84973 19.9844 4.87473 18.9875 4.87473 17.4922C4.87473 15.9969 5.84973 15 7.31223 15C8.77473 15 10.9685 17.243 10.9685 18.7383C10.9685 20.2336 8.77473 19.9844 7.31223 19.9844ZM31.6873 19.9844C30.2248 19.9844 28.031 20.2336 28.031 18.7383C28.031 17.243 30.2248 15 31.6873 15C33.1498 15 34.1248 15.9969 34.1248 17.4922C34.1248 18.9875 33.1498 19.9844 31.6873 19.9844Z" fill="white"/>
</svg>
