<svg width="54" height="44" viewBox="0 0 54 44" fill="none" xmlns="http://www.w3.org/2000/svg">
<path d="M24.8737 21.2335L11.4855 13.6558L16.1388 5.46493L29.5299 13.0382L24.8737 21.2335ZM71 39.8987L28.9728 15.4341L26.6469 19.534L68.6712 44L71 39.8987ZM30.8245 11.4599C30.7402 11.6102 30.6272 11.7423 30.4921 11.8487C30.3569 11.9552 30.2021 12.0338 30.0366 12.0802C29.8712 12.1265 29.6982 12.1397 29.5276 12.119C29.3571 12.0982 29.1923 12.0439 29.0426 11.9592L17.3243 5.32768C17.1744 5.2437 17.0425 5.13068 16.9364 4.99517C16.8303 4.85966 16.752 4.70435 16.7062 4.53825C16.6603 4.37216 16.6477 4.19857 16.6692 4.02757C16.6907 3.85656 16.7457 3.69153 16.8312 3.54204C17.0048 3.24004 17.2904 3.01925 17.6256 2.92789C17.9608 2.83652 18.3185 2.88199 18.6204 3.05439L30.3358 9.67717C30.4852 9.76124 30.6166 9.87426 30.7223 10.0097C30.8279 10.1451 30.9057 10.3002 30.9512 10.466C30.9966 10.6319 31.0089 10.8051 30.9871 10.9757C30.9654 11.1463 30.9101 11.3109 30.8245 11.4599ZM32.4668 8.58067C32.2952 8.88357 32.011 9.10589 31.6765 9.19893C31.342 9.29197 30.9844 9.24816 30.682 9.07709L18.9593 2.44701C18.8097 2.36378 18.6782 2.25147 18.5724 2.11665C18.4665 1.98183 18.3885 1.82719 18.3429 1.66177C18.2973 1.49635 18.2849 1.32346 18.3066 1.1532C18.3283 0.982941 18.3835 0.818719 18.4691 0.670127C18.5537 0.519157 18.6671 0.386453 18.8029 0.279645C18.9388 0.172837 19.0943 0.0940314 19.2605 0.0477623C19.4268 0.00149321 19.6006 -0.0113279 19.7718 0.0100363C19.943 0.0314005 20.1083 0.0865291 20.2583 0.172251L31.9765 6.79649C32.1262 6.88058 32.2578 6.99365 32.3636 7.12914C32.4694 7.26463 32.5473 7.41985 32.5929 7.58581C32.6385 7.75177 32.6508 7.92516 32.6292 8.09594C32.6075 8.26671 32.5523 8.43147 32.4668 8.58067ZM22.5638 26.0195C22.3894 26.3202 22.1041 26.54 21.7696 26.6312C21.435 26.7225 21.0782 26.6779 20.7761 26.5072L9.04909 19.8756C8.89954 19.7912 8.76811 19.678 8.66236 19.5424C8.55662 19.4068 8.47865 19.2515 8.43295 19.0855C8.38724 18.9195 8.37472 18.7461 8.39608 18.5753C8.41745 18.4044 8.47228 18.2395 8.55743 18.09C8.73262 17.7901 9.01792 17.5711 9.35213 17.4799C9.68634 17.3888 10.0428 17.4327 10.3451 17.6023L22.0663 24.2339C22.3682 24.4044 22.5902 24.6884 22.6835 25.0233C22.7768 25.3581 22.7337 25.7165 22.5638 26.0195ZM24.2017 23.1301C24.1161 23.2808 24.0017 23.4131 23.8651 23.5193C23.7285 23.6255 23.5723 23.7036 23.4055 23.749C23.2387 23.7945 23.0646 23.8064 22.8932 23.7841C22.7218 23.7618 22.5565 23.7058 22.4067 23.6192L10.6884 16.9949C10.3879 16.8231 10.1673 16.5388 10.0749 16.2042C9.98254 15.8696 10.0258 15.5119 10.1953 15.2093C10.2809 15.0592 10.3951 14.9274 10.5314 14.8216C10.6677 14.7157 10.8234 14.6379 10.9897 14.5924C11.156 14.547 11.3295 14.5349 11.5005 14.5568C11.6714 14.5788 11.8364 14.6343 11.9859 14.7202L23.7028 21.3444C23.8524 21.4288 23.9839 21.5419 24.09 21.6773C24.196 21.8126 24.2744 21.9677 24.3208 22.1335C24.3671 22.2993 24.3804 22.4727 24.36 22.6437C24.3396 22.8147 24.2858 22.9799 24.2017 23.1301ZM4.53691 34.9258H25.1981V37.3101H4.53691V34.9258ZM29.7103 39.8987C29.6452 39.5062 29.4437 39.1496 29.1414 38.8921C28.8391 38.6347 28.4557 38.4932 28.0593 38.4927H1.68152C1.28495 38.4926 0.901233 38.6339 0.598837 38.8914C0.296441 39.149 0.0950332 39.506 0.0305467 39.8987H0V43.8029H29.7408V39.8987H29.7103Z" fill="black"/>
</svg>
