<svg width="37" height="39" viewBox="0 0 37 39" fill="none" xmlns="http://www.w3.org/2000/svg">
<path fill-rule="evenodd" clip-rule="evenodd" d="M18.5413 0C13.6623 0 9.21649 1.61647 6.58637 2.93716C6.34874 3.05634 6.12731 3.17335 5.92101 3.28602C5.51272 3.50921 5.16492 3.71723 4.8884 3.90033L7.88037 8.31853L9.28886 8.88082C14.7932 11.6663 22.1748 11.6663 27.6802 8.88082L29.2788 8.04875L32.1088 3.90033C31.5225 3.51679 30.9128 3.17049 30.2834 2.86349C27.6673 1.55688 23.3284 0 18.5413 0ZM11.582 5.00108C10.5225 4.80222 9.47607 4.53882 8.44851 4.21235C10.9123 3.11484 14.5847 1.95016 18.5402 1.95016C21.2805 1.95016 23.8717 2.50921 26.0147 3.21777C23.5034 3.57205 20.8236 4.17335 18.2701 4.91333C16.2611 5.49621 13.9129 5.43337 11.582 5.00108ZM28.8209 10.4875L28.5562 10.6219C22.4999 13.6858 14.4681 13.6858 8.41179 10.6219L8.1612 10.494C-0.935662 20.506 -7.8809 39 18.5413 39C44.9613 39 37.8464 20.1603 28.8209 10.4875Z" fill="white"/>
</svg>
