<svg width="30" height="35" viewBox="0 0 30 35" fill="none" xmlns="http://www.w3.org/2000/svg">
<path d="M18.7 22.5C25.35 22.5 30 17.8548 30 11.1774C30 4.5 25.35 0 18.7 0H5.9375C5.41977 0 5 0.419766 5 0.9375V17.0806H0.9375C0.419766 17.0806 0 17.5004 0 18.0181V21.5625C0 22.0802 0.419766 22.5 0.9375 22.5H5V25H0.9375C0.419766 25 0 25.4198 0 25.9375V29.0625C0 29.5802 0.419766 30 0.9375 30H5V34.0625C5 34.5802 5.41977 35 5.9375 35H10.5125C11.0302 35 11.45 34.5802 11.45 34.0625V30H24.0625C24.5802 30 25 29.5802 25 29.0625V25.9375C25 25.4198 24.5802 25 24.0625 25H11.45V22.5H18.7ZM11.45 5.37094H17.6C21.25 5.37094 23.45 7.64516 23.45 11.1774C23.45 14.758 21.25 17.0806 17.5 17.0806H11.45V5.37094Z" fill="white"/>
</svg>
