<svg width="186" height="22" viewBox="0 0 186 22" fill="none" xmlns="http://www.w3.org/2000/svg">
<path d="M1.85512 0.276249C1.1326 0.610136 0.488189 1.29755 0.214803 2.02425C0.0781102 2.39741 0 5.8934 0 12.2962V21.9985H4.49134V15.91H10.4668L12.029 18.9543L13.5717 21.9985H16.1688C17.5748 21.9985 18.7465 21.9396 18.7465 21.8807C18.7465 21.8021 17.9458 20.1916 16.9499 18.3061L15.1729 14.8494L15.6416 14.5548C18.2778 12.8068 19.4494 9.36976 18.7465 5.44168C18.2973 3.04555 17.1452 1.35647 15.3682 0.570856C14.3723 0.119127 14.1965 0.0994854 8.39685 0.0602055C3.71024 0.0209236 2.32378 0.0602055 1.85512 0.276249ZM13.1811 4.71498C13.4935 4.83282 13.806 5.18635 13.9817 5.63808C14.3528 6.5219 14.3918 8.78054 14.0598 9.44832C13.2202 11.0785 12.1852 11.3927 7.77197 11.3927H4.49134V4.51858H8.5726C10.8183 4.51858 12.8882 4.59714 13.1811 4.71498ZM25.3858 0.178047C23.4526 0.76726 22.0661 2.16173 21.4803 4.06685C21.0117 5.5988 20.5039 9.21263 20.5039 10.9606C20.5039 12.6497 20.9726 16.0868 21.3827 17.4812C22.1052 19.897 23.3354 21.1344 25.6006 21.7236C26.577 21.9789 27.612 22.0182 30.9317 21.9593C34.7395 21.9003 35.1301 21.8414 36.0869 21.429C38.8403 20.1916 40.0315 17.0492 40.0315 10.9999C40.012 4.63642 38.7817 1.49395 35.8721 0.413733C34.8372 0.0405655 34.388 0.00128365 30.3068 0.0209236C27.8658 0.0209236 25.6592 0.0994854 25.3858 0.178047ZM34.4661 4.97031C35.7745 6.77722 35.755 15.6743 34.4271 16.9902C34.0365 17.4027 26.5184 17.4223 26.1865 17.0295C25.2687 15.91 24.9367 9.44832 25.6397 6.4237C25.9326 5.22563 26.0888 4.85246 26.4208 4.71498C26.6551 4.61678 28.5102 4.55786 30.5216 4.5775C33.8217 4.61678 34.2318 4.65606 34.4661 4.97031ZM44.2494 0.433372C43.8198 0.688698 43.2926 1.19935 43.0778 1.57252C42.6872 2.24029 42.6677 2.59382 42.6091 10.45C42.5701 15.9297 42.6287 18.8954 42.7654 19.4453C43.0973 20.663 43.9565 21.5468 45.1282 21.7825C46.3389 22.0575 54.9506 22.0575 56.4932 21.8021C59.5005 21.3111 61.0431 19.5435 61.2579 16.3028C61.3946 14.4763 61.1017 13.1211 60.3402 11.9034L59.7739 11.0196L60.4964 9.60544C61.1994 8.25025 61.2189 8.11277 61.2189 6.20765C61.2189 4.5775 61.1213 4.04721 60.7698 3.24195C60.2035 2.0046 59.52 1.27791 58.2898 0.629776L57.3134 0.0994854L51.1622 0.0405655C45.0696 0.00128365 45.011 0.00128365 44.2494 0.433372ZM56.337 4.75426C56.6104 5.02923 56.7861 6.34513 56.6104 6.95399C56.5128 7.30751 56.2003 7.79852 55.9269 8.07349C55.4387 8.54486 55.3606 8.54486 51.338 8.60378L47.2567 8.6627V4.49894L51.7285 4.55786C54.189 4.59714 56.2589 4.6757 56.337 4.75426ZM55.4778 13.5139C56.2589 13.8281 56.6885 14.6727 56.669 15.7922C56.6494 16.4992 56.5518 16.8527 56.3175 17.0295C56.0636 17.2259 54.8334 17.2848 51.6113 17.2848H47.2567V13.1211L51.1231 13.1996C53.2321 13.2586 55.2044 13.396 55.4778 13.5139ZM67.7997 0.413733C65.9055 1.16007 64.9487 2.49562 64.2066 5.44168C63.8356 6.93435 63.777 7.71996 63.777 10.9999C63.777 14.5745 63.8161 14.9673 64.3043 16.7938C64.9096 19.0132 65.4759 19.9756 66.6085 20.8201C68.0145 21.8218 68.4441 21.9003 73.4236 21.9003C78.4031 21.9003 78.8328 21.8218 80.2387 20.8201C81.3713 19.9756 81.9376 19.0132 82.543 16.7938C83.0312 14.9673 83.0702 14.5745 83.0702 10.9999C83.0702 7.71996 83.0117 6.93435 82.6406 5.44168C81.8986 2.45634 80.9417 1.14043 78.989 0.413733C77.9931 0.0405655 77.5049 0.00128365 73.365 0.0209236C69.2838 0.0209236 68.737 0.0602055 67.7997 0.413733ZM77.212 4.71498C77.7392 4.91138 77.9735 5.52024 78.3446 7.7396C78.8132 10.4696 78.4031 15.6154 77.622 16.8135C77.3291 17.2848 77.3096 17.2848 73.4236 17.2848C68.8542 17.2848 69.1276 17.4223 68.6198 14.8101C67.8973 11.1963 68.4831 5.16671 69.5767 4.71498C70.1625 4.4793 76.5871 4.4793 77.212 4.71498Z" fill="#276EB8"/>
<path d="M86.7225 0.610399L86.1172 1.21925V20.6633L86.6835 21.2328C87.1912 21.7238 87.406 21.8024 88.4019 21.8024C89.3588 21.8024 89.6321 21.7238 89.9836 21.3507C90.6671 20.624 90.8038 19.7794 90.8038 16.362V13.1606H93.6744L95.1194 14.4176C98.0095 16.9119 99.0054 18.2475 99.0054 19.583C99.0054 20.3294 99.103 20.5651 99.6693 21.1346C100.255 21.7238 100.45 21.8024 101.329 21.8024C102.149 21.8024 102.423 21.7042 102.95 21.2328C103.575 20.6829 103.594 20.6043 103.575 19.1706C103.555 17.9332 103.458 17.4815 102.95 16.4406C102.266 15.0657 100.275 12.6107 99.0249 11.609L98.2047 10.9609L99.474 9.80211C100.997 8.388 102.403 6.56144 103.067 5.12769C103.438 4.3028 103.555 3.71358 103.575 2.61372C103.594 1.19961 103.575 1.12105 102.95 0.571119C102.384 0.0604687 102.169 0.00154686 101.075 0.00154686C99.9427 0.00154686 99.767 0.0604687 99.4155 0.512197C99.1421 0.865725 99.0054 1.31746 99.0054 1.90667C99.0054 2.37804 98.8882 3.04581 98.732 3.39934C98.4 4.22424 96.9159 5.85439 95.1194 7.40598L93.6744 8.64333H90.8038V5.44194C90.8038 3.69394 90.7062 1.92631 90.6085 1.5335C90.3156 0.472918 89.6126 0.00154686 88.3433 0.00154686C87.4646 0.00154686 87.2303 0.0801086 86.7225 0.610399ZM111.581 0.276514C108.945 1.12105 107.5 3.00653 106.484 6.85605C106.016 8.5844 105.977 9.17362 105.899 14.1623C105.781 20.0544 105.86 20.7025 106.758 21.4096C107.402 21.9202 109.062 21.9399 109.667 21.4489C110.37 20.8793 110.527 20.3294 110.527 18.2868V16.3031H120.681V18.4832C120.681 20.624 120.681 20.6633 121.247 21.2328C121.755 21.7238 121.97 21.8024 122.927 21.8024C123.923 21.8024 124.098 21.7435 124.626 21.1739L125.192 20.5454L125.133 14.2605C125.055 8.44692 125.016 7.83807 124.626 6.52216C123.688 3.41898 122.321 1.47458 120.486 0.610399C119.47 0.13903 119.197 0.0997486 115.897 0.0604687C113.397 0.0211887 112.147 0.0801086 111.581 0.276514ZM118.318 4.73489C119.392 5.10805 120.31 7.48454 120.564 10.4502L120.661 11.7858H110.468L110.605 10.2146C110.839 7.44526 111.913 4.85273 112.909 4.65632C113.866 4.47956 117.732 4.53848 118.318 4.73489ZM131.323 0.276514C129.41 0.885366 128.336 1.82811 127.672 3.53682C127.34 4.401 127.242 5.02949 127.242 6.58108C127.242 9.72355 128.18 11.5108 130.386 12.591C131.265 13.0231 131.616 13.0624 135.463 13.1606C139.447 13.2588 139.623 13.2785 140.052 13.7106C140.619 14.2801 140.677 15.9496 140.15 16.7548L139.818 17.2851H134.565C129.605 17.2851 129.293 17.3047 128.824 17.6779C127.73 18.5421 127.691 20.4276 128.726 21.3114L129.312 21.8024H134.995C138.158 21.8024 141.009 21.7042 141.4 21.606C142.474 21.3114 143.626 20.1722 144.348 18.6992C144.954 17.4619 144.993 17.2851 144.993 15.2229C144.993 13.2981 144.934 12.9446 144.485 11.9822C143.841 10.6074 142.962 9.58607 142.005 9.1147C141.38 8.80045 140.658 8.72189 136.83 8.64333C131.655 8.52548 131.812 8.60404 131.812 6.58108C131.812 4.53848 131.519 4.63668 137.748 4.51884L143.138 4.42064L143.665 3.89035C144.134 3.41898 144.192 3.18329 144.27 1.69062L144.368 0.00154686L138.236 0.0211887C133.862 0.0211887 131.89 0.0997486 131.323 0.276514ZM150.656 0.276514C150.226 0.413996 149.621 0.669321 149.289 0.826445C146.77 2.16199 145.715 6.64001 147.16 9.82175C147.766 11.1573 148.43 11.8644 149.679 12.5321C150.617 13.0428 150.773 13.0624 154.561 13.1213C156.709 13.141 158.701 13.2785 158.994 13.3767C159.677 13.6516 160.009 14.6533 159.834 15.8317C159.619 17.3244 159.775 17.2851 153.858 17.2851H148.566L148 17.8547C147.512 18.3653 147.434 18.5814 147.434 19.5437C147.434 20.5061 147.512 20.7222 148 21.2328L148.566 21.8024H154.464C161.025 21.8024 161.181 21.7828 162.548 20.4668C163.739 19.3081 164.286 17.9332 164.384 15.6746C164.501 13.0624 164.013 11.5305 162.568 10.0967C161.923 9.44858 161.279 8.99685 160.791 8.85937C160.361 8.74153 158.408 8.64333 156.397 8.64333C154.386 8.64333 152.491 8.5844 152.159 8.52548C151.456 8.388 151.144 7.77915 151.144 6.58108C151.144 5.38302 151.456 4.77417 152.159 4.63668C152.491 4.57776 154.854 4.51884 157.432 4.51884C163.505 4.51884 163.642 4.44028 163.642 1.47458V0.00154686L157.549 0.0211887C153.194 0.0211887 151.203 0.0997486 150.656 0.276514ZM172.058 0.394356C171.492 0.590759 170.711 1.00321 170.34 1.29781C168.777 2.49588 167.371 5.63834 166.981 8.83973C166.688 11.0787 166.707 19.7991 166.981 20.6043C167.254 21.3703 168.035 21.8024 169.187 21.8024C169.89 21.8024 170.203 21.6846 170.711 21.2328L171.355 20.6633L171.414 18.4832L171.492 16.3031H181.373L181.451 18.4832L181.509 20.6633L182.154 21.2328C182.661 21.7042 182.954 21.8024 183.755 21.8024C184.556 21.8024 184.849 21.7042 185.356 21.2328L186.001 20.6633L185.981 14.4962C185.962 8.85937 185.942 8.23088 185.552 6.81677C184.673 3.5761 183.364 1.61206 181.47 0.669321C180.357 0.11939 180.26 0.0997486 176.725 0.0604687C173.542 0.00154686 172.995 0.0408287 172.058 0.394356ZM179.869 5.30446C180.65 6.22756 181.236 8.1916 181.353 10.1556L181.47 11.7858H171.453V10.5877C171.453 8.09339 172.546 5.18661 173.64 4.71525C173.894 4.61704 175.26 4.55812 176.706 4.57776L179.303 4.61704L179.869 5.30446Z" fill="#D61E2F"/>
</svg>
